<?xml version="1.0" encoding="UTF-8" standalone="no"?>
<svg
   width="551.24658"
   zoomAndPan="magnify"
   viewBox="0 0 413.43494 98.697624"
   height="131.59683"
   preserveAspectRatio="xMidYMid meet"
   version="1.0"
   id="svg34"
   sodipodi:docname="Untitled design-5.svg"
   inkscape:version="1.1.2 (b8e25be833, 2022-02-05)"
   xmlns:inkscape="http://www.inkscape.org/namespaces/inkscape"
   xmlns:sodipodi="http://sodipodi.sourceforge.net/DTD/sodipodi-0.dtd"
   xmlns="http://www.w3.org/2000/svg"
   xmlns:svg="http://www.w3.org/2000/svg">
  <defs
     id="defs38" />
  <sodipodi:namedview
     id="namedview36"
     pagecolor="#ffffff"
     bordercolor="#666666"
     borderopacity="1.0"
     inkscape:pageshadow="2"
     inkscape:pageopacity="0.0"
     inkscape:pagecheckerboard="0"
     showgrid="false"
     fit-margin-top="0"
     fit-margin-left="0"
     fit-margin-right="0"
     fit-margin-bottom="0"
     inkscape:zoom="2.16"
     inkscape:cx="134.02778"
     inkscape:cy="66.435185"
     inkscape:window-width="1920"
     inkscape:window-height="1111"
     inkscape:window-x="-9"
     inkscape:window-y="-9"
     inkscape:window-maximized="1"
     inkscape:current-layer="svg34" />
  <path
     fill="#005887"
     d="m 76.528704,42.505037 c -2.492187,-6.124999 -4.773437,-11.890624 -7.265625,-17.941405 -7.625,9.894531 -15.105469,19.578125 -22.871093,29.542965 -3.492188,-8.04296 -6.914063,-15.875 -10.402344,-23.917965 -2.921875,3.914063 -5.699219,7.617185 -8.410156,11.320315 -5.414063,7.33203 -10.828126,14.66406 -16.242188,22.0664 -1.6406251,2.20703 -3.3515621,4.27344 -4.8476561,6.55078 -1.066406,1.70704 -1.351563,1.13672 -1.992188,-0.28515 -3.066406,-6.69141 -4.63281203,-13.66797 -4.48828103,-21 C 0.36464187,34.247226 5.8490169,21.930819 16.821673,12.247226 25.087298,4.9151946 34.849017,0.92691262 45.891986,0.14566262 59.50136,-0.85043138 71.47011,3.2784756 81.872458,12.032382 c 3.49218,2.921875 6.41406,6.335937 8.90625,10.109375 0.42968,0.570312 1.07031,1.140625 0.28515,2.136719 -4.77343,5.910156 -9.546872,11.960937 -14.535154,18.226561 z m 0,0"
     fill-opacity="1"
     fill-rule="nonzero"
     id="path2" />
  <path
     fill="#4ab580"
     d="m 66.196673,45.919097 c 2.351563,5.91016 4.632813,11.46485 7.054687,17.44532 7.839844,-9.75391 15.460938,-19.22266 23.156248,-28.835941 1.21094,2.636721 1.64063,5.339841 1.9961,7.976561 1.21093,8.89844 0.14062,17.51172 -3.34766,25.76953 -4.48828,10.60938 -11.82812,18.72266 -21.945312,24.34766 -8.621094,4.69922 -17.882813,6.6914 -27.574219,5.91015 -9.476563,-0.78515 -18.097657,-3.98828 -25.722657,-9.7539 -2.492187,-1.85156 -4.773437,-3.91797 -6.910156,-6.19531 -0.925781,-0.92579 -1.070312,-1.70704 -0.214844,-2.91797 6.628907,-8.82813 13.109376,-17.65625 19.664063,-26.48438 0.359375,-0.42578 0.570313,-1.13672 1.140625,-1.0664 0.640625,0.0703 0.714844,0.78125 0.925781,1.28125 2.851563,6.62109 5.703125,13.3125 8.550781,19.93359 0.5,1.21094 1,1.42187 1.851563,0.28516 5.0625,-6.6211 10.121094,-13.24219 15.25,-19.86328 1.996094,-2.49219 3.988281,-5.05469 6.125,-7.83204 z m 0,0"
     fill-opacity="1"
     fill-rule="nonzero"
     id="path4" />
  <path
     fill="#000000"
     d="m 257.00527,91.126127 c -0.85547,-1.49609 -1.35156,-3.13281 -1.92188,-4.76953 -3.13672,-9.03906 -6.26953,-18.15234 -9.40625,-27.19531 -0.14062,-0.35547 -0.21484,-0.71094 0.14453,-0.92578 1.99219,-0.14062 3.98829,-0.28516 5.91016,0.0742 2.49609,7.75781 4.98828,15.51953 7.48438,23.27734 0.14062,0 0.28515,0 0.49609,0 2.56641,-7.75781 5.13281,-15.51953 7.69531,-23.27734 1.71094,-0.28516 3.49219,-0.28516 5.20313,0 0.92578,3.91406 2.42187,7.61719 3.63281,11.39062 1.14062,3.48828 2.28125,7.04688 3.34766,10.53516 0.14453,0.49609 0.21484,0.92578 0.85546,1.42187 0.71485,-2.13281 1.4961,-4.19921 2.13672,-6.26562 1.78125,-5.55078 3.5625,-11.17578 5.34375,-16.72656 0.0742,-0.14453 0.21485,-0.28516 0.35938,-0.42969 1.99219,-0.14062 3.98828,-0.28516 5.91015,0.0742 -1.99218,5.76562 -3.91796,11.53125 -5.98437,17.22656 -1.92188,5.19531 -3.34766,10.53516 -5.62891,15.58984 -1.63672,0.14454 -3.20312,0.21485 -4.84375,-0.0703 -2.63672,-7.47656 -5.19922,-14.94922 -7.83593,-22.42578 -0.14454,0 -0.28516,0 -0.42969,-0.0703 -2.63672,7.47656 -5.19922,15.01953 -7.83594,22.49609 -1.42578,0.28516 -3.06641,0.21485 -4.63281,0.0703 z m 0,0"
     fill-opacity="0.898"
     fill-rule="nonzero"
     id="path6" />
  <path
     fill="#000000"
     d="m 154.40761,91.481597 c -7.91015,0 -14.39453,-5.33984 -15.89062,-13.09765 -1.92188,-9.96875 4.41797,-19.29297 14.03515,-20.50391 0.57032,-0.28515 1.28516,0.14453 1.85547,-0.28515 0.4961,0 0.9961,0 1.4961,0 0.78125,0.5 1.70703,-0.0703 2.5625,0.28515 2.99218,0.57031 5.77343,1.63672 8.26562,3.41797 0.85547,0.57031 0.99609,0.99609 0.21484,1.85156 -1,0.9961 -1.64062,2.63281 -2.92187,2.98828 -1.21094,0.35547 -2.28125,-1.13671 -3.49219,-1.70703 -6.625,-3.13281 -13.60937,-0.28515 -15.67578,6.47656 -0.14062,0.57032 -0.21094,1.07032 -0.21094,1.64063 -0.28515,1.35156 -0.28515,2.70312 0,4.05469 0.0703,4.76953 4.48828,9.39843 9.26172,9.68359 2.70703,0.21484 5.27344,-0.28516 7.69531,-1.56641 1.21094,-0.64062 1.78125,-1.35156 1.71094,-2.77734 -0.14453,-1.28125 -0.0742,-2.5625 -0.0742,-3.91406 -2.0664,-0.42969 -4.13281,-0.0703 -6.125,-0.21485 -0.64062,-0.0703 -1.35547,0.14454 -1.99609,-0.14062 l -0.0703,-0.0742 c -0.0703,-0.14062 -0.14453,-0.21094 -0.14453,-0.35547 -0.28516,-4.69531 -0.28516,-4.69531 4.34765,-4.625 3.20703,0.0703 6.41406,-0.21484 9.61719,0.14063 0,4.05859 0,8.04687 0,12.10156 0,1 -0.21094,1.64062 -1.06641,2.35156 -3.49218,2.63281 -7.33984,3.98438 -11.61328,4.26953 -0.57031,0.21485 -1.14062,0.21485 -1.78125,0 z m 0,0"
     fill-opacity="0.898"
     fill-rule="nonzero"
     id="path8" />
  <path
     fill="#000000"
     d="m 336.38027,71.622227 c 4.6289,0 9.26172,0 13.89062,0.0703 1.21094,0 1.42578,-0.57031 1.42578,-1.56641 -0.0703,-3.34765 0,-6.6914 0,-10.03906 0,-0.64062 -0.21484,-1.35156 0.42969,-1.92187 1.70703,-0.21485 3.41797,-0.21485 5.12891,0 0.64062,0.5 0.42578,1.28125 0.42578,1.92187 0,9.53906 0,19.07813 0.0742,28.6211 0,1.84765 -0.57031,2.34765 -2.35156,2.27734 -3.63672,-0.0742 -3.63672,0 -3.63672,-3.63281 0,-2.84766 -0.0703,-5.69532 0,-8.54297 0,-1.13672 -0.21094,-1.70703 -1.4961,-1.63672 -4.55859,0.0703 -9.1914,0.0703 -13.82031,0.0703 -0.42969,2.92188 -0.0703,5.76953 -0.21484,8.6875 -0.0703,1.56641 0.14453,3.0586 -0.14063,4.625 -1.92578,0.64063 -3.84765,0.64063 -5.70312,0 -0.28516,-1.28125 -0.0703,-2.5625 -0.14063,-3.84375 0,-8.82812 0,-17.65625 0,-26.48047 0,-0.64062 -0.14453,-1.35546 0.14063,-1.99609 l 0.0742,-0.0703 c 1.85156,-0.21485 3.70312,-0.21485 5.55468,0 l 0.0742,0.0703 c 0.35547,3.77344 0.0703,7.54687 0.14063,11.39062 0,0.71485 -0.21485,1.35547 0.14453,1.9961 z m 0,0"
     fill-opacity="0.898"
     fill-rule="nonzero"
     id="path10" />
  <path
     fill="#000000"
     d="m 314.07558,63.860507 c 0,8.32812 -0.0703,16.73047 0,25.05859 0,1.78125 -0.49609,2.20703 -2.20703,2.13672 -3.84766,-0.14453 -3.84766,0 -3.84766,-3.84375 0,-7.83203 -0.0703,-15.58984 -0.0703,-23.42187 -2.56641,-0.42578 -5.12891,-0.0703 -7.625,-0.21485 -0.78516,-0.0703 -1.56641,0.14454 -2.35156,-0.14062 l -0.0703,-0.0703 c -0.21485,-1.71094 -0.21485,-3.49219 0,-5.19922 l 0.0703,-0.0703 c 1,-0.28516 2.0664,-0.14454 3.13672,-0.14454 6.98047,0 13.96484,0 20.94531,0 0.64062,0 1.35547,-0.14062 1.99609,0.14454 0.64063,1.77734 0.64063,3.55859 0,5.33984 -2.63672,0.28516 -5.34375,0 -7.98047,0.14062 -0.64062,0.14454 -1.35156,-0.0703 -1.99609,0.28516 z m 0,0"
     fill-opacity="0.898"
     fill-rule="nonzero"
     id="path12" />
  <path
     fill="#000000"
     d="m 165.66542,17.727695 c -2.99609,4.414062 -6.05859,8.757812 -8.98046,13.242187 -0.85547,1.355469 -1.14063,1.28125 -1.99219,0 -2.78125,-4.339844 -5.77344,-8.542969 -8.6211,-12.8125 -0.85546,0.425781 -0.42968,1.210937 -0.42968,1.777344 -0.0703,6.695312 0,13.386719 -0.0703,20.078121 -1.99609,0.71094 -3.91796,0.71094 -5.91406,0 0,-10.749996 -0.0703,-21.570309 0.0703,-32.3203094 l 0.0703,-0.07031 c 1.99609,-0.144531 3.92187,-0.07422 5.91406,-0.07422 2.99219,4.5585944 5.98437,9.1132814 8.90625,13.7421884 1,1.566406 1.21094,1.636718 2.21094,0.07031 2.63672,-4.128906 5.27343,-8.257812 7.90625,-12.4570314 0.35937,-0.570313 0.78515,-0.925781 1.21093,-1.355469 1.9961,0.07422 3.92188,-0.210938 5.91407,0.144531 0,10.3203134 -0.0703,20.6445314 0.0742,30.9687494 0,1.5625 -0.42969,2.0625 -1.9961,1.84766 -1.21094,-0.14063 -2.49219,0 -3.70703,0 -0.28516,-2.49219 -0.14062,-5.05469 -0.14062,-7.542971 -0.0703,-4.488281 0,-9.042969 0,-13.527344 0,-0.640625 0.42578,-1.351563 -0.42579,-1.710937 z m 0,0"
     fill-opacity="0.898"
     fill-rule="nonzero"
     id="path14" />
  <path
     fill="#000000"
     d="m 380.34121,7.4776946 c 0.71093,0.5 0.42578,1.28125 0.42578,1.921874 0,9.6835944 0,19.3632824 0.0703,28.9765684 0,1.70703 -0.57031,1.99218 -2.13672,2.0625 -2.20703,0.0703 -3.41797,-0.57032 -4.77344,-2.42188 -4.70312,-6.40625 -9.76172,-12.671875 -14.67578,-18.933594 -0.28515,-0.429687 -0.35937,-1.070312 -1.21094,-1.28125 0,3.273438 0,6.546875 0,9.824219 0,3.628906 -0.0742,7.332031 0,10.960935 0,1.42578 -0.42968,1.78125 -1.85546,1.78125 -4.13282,0 -4.13282,0.0703 -4.13282,-4.128904 0,-8.898437 0,-17.871094 0,-26.7695314 0,-0.710937 -0.35547,-1.492187 0.42969,-2.0625 1.56641,0 3.13281,0 4.70313,0 2.20703,2.347656 4.05859,5.0546874 5.98437,7.5468754 3.70313,4.699219 7.33984,9.394531 10.97266,14.09375 0.0703,0.144531 0.21093,0.355469 0.57031,0.07031 0,-6.476562 0,-13.097656 0,-19.7187504 0,-0.710937 -0.35938,-1.496093 0.42578,-2.0625 1.78125,0.140626 3.49219,0.140626 5.20313,0.140626 z m 0,0"
     fill-opacity="0.898"
     fill-rule="nonzero"
     id="path16" />
  <path
     fill="#000000"
     d="m 306.95058,7.6222256 c 0,10.3203124 -0.0703,20.6445314 0.0742,30.9648414 0,1.56641 -0.42969,2.06641 -1.99609,1.85157 -1.21094,-0.14063 -2.49219,0 -3.70704,0 -0.35546,-3.843755 -0.0703,-7.757818 -0.14062,-11.675786 0,-0.640625 0.21484,-1.351563 -0.21484,-1.992188 -4.77344,-0.07031 -9.54688,-0.07031 -14.32032,-0.140625 -1.14062,0 -0.92578,0.710938 -0.92578,1.351563 0,3.558594 -0.0703,7.046875 0,10.605466 0,1.35547 -0.35547,1.85157 -1.78125,1.85157 -4.20312,0 -4.20312,0.0703 -4.20312,-4.058599 0,-8.898437 0,-17.867187 0,-26.7656254 0,-0.710937 -0.35547,-1.496094 0.42578,-2.066406 1.71094,0 3.42187,0 5.1289,0 0.71485,0.5 0.42969,1.28125 0.42969,1.921875 0,3.4882814 0,6.9062504 0,10.3945314 0,0.710938 -0.0703,1.351563 0.9961,1.28125 4.77343,-0.07031 9.54687,-0.140625 14.32421,-0.140625 0.42579,-2.777343 0.0703,-5.554687 0.21094,-8.257812 0.0703,-1.636719 -0.0703,-3.3476574 0.0703,-4.9843754 l 0.0742,-0.07031 c 1.78125,-0.214843 3.63282,-0.355469 5.55469,-0.07031 z m 0,0"
     fill-opacity="0.898"
     fill-rule="nonzero"
     id="path18" />
  <path
     fill="#000000"
     d="m 204.70839,35.169101 c -0.14062,1.710937 0.71094,3.988286 -0.35547,4.914066 -0.92578,0.85547 -3.13671,0.28515 -4.84375,0.28515 -6.34375,0 -12.7539,0 -19.09765,0 -0.21485,-0.42578 -0.14063,-0.85547 -0.14063,-1.28125 0,-10.179685 0,-20.359372 0,-30.6132794 0,-0.285156 0,-0.640625 0.0703,-0.925781 l 0.0703,-0.07031 c 7.98047,-0.140626 15.89062,-0.140626 23.87109,0 l 0.0703,0.07031 c 0.0703,1.710938 0.21485,3.4882814 -0.0703,5.1992194 -5.55859,0 -11.11719,0.07031 -16.74609,0 -1.35156,0 -1.71094,0.355469 -1.63672,1.636719 0.14062,1.566406 0.14062,3.203124 0,4.839843 -0.14453,1.566407 0.49609,1.78125 1.85156,1.78125 4.13281,-0.07031 8.26563,0.07031 12.46875,-0.07031 1.78125,-0.07422 2.42188,0.566406 2.13672,2.207031 -0.14062,1.066406 0.42969,2.203125 -0.42578,3.203125 -4.70313,0 -9.33594,0 -14.03906,0 -0.57032,0 -1.21094,-0.214844 -1.78125,0.210937 -0.21094,2.707032 -0.21094,5.484376 0,8.1875 1.14062,0.425782 2.35156,0.144532 3.49218,0.214844 5.12891,0.140625 10.11719,-0.144531 15.10547,0.210938 z m 0,0"
     fill-opacity="0.898"
     fill-rule="nonzero"
     id="path20" />
  <path
     fill="#000000"
     d="m 263.98964,7.1222256 c 2.92188,0.925781 5.91407,1.78125 8.33594,3.8437504 0.78125,0.710937 1.42578,1.210937 0.28516,2.066406 -0.28516,0.28125 -0.42969,0.710937 -0.71485,1.066406 -1.85156,2.207031 -1.92187,2.277344 -4.27343,0.640625 -3.98829,-2.777344 -9.54688,-3.417968 -13.60938,-0.07031 -2.28125,1.851562 -3.5625,4.199218 -3.84766,7.117187 -0.28515,1.355469 -0.28515,2.707031 0,4.058594 0,4.484375 4.27735,9.113281 8.6211,9.328125 1.35547,0.28125 2.70703,0.28125 4.0625,0 2.20703,-0.285156 3.98828,-1.496094 5.6289,-2.847656 1.06641,-0.855469 1.78125,-1 2.70704,0.140625 0.71093,0.925781 1.63671,1.636719 2.49218,2.421875 -5.26953,6.621096 -16.52734,7.902346 -23.01172,2.917966 -4.27734,-3.203122 -6.625,-7.332029 -6.83984,-12.742185 -0.14453,-3.347656 0.28516,-6.550781 1.92188,-9.542969 2.5664,-4.625 6.41406,-7.3320314 11.61328,-8.3281254 0.14453,0 0.21484,-0.07031 0.35937,-0.140625 0.57031,-0.144531 1.21094,0.210938 1.78125,-0.214844 0.85156,0 1.78125,0 2.63281,0 0.64454,0.5 1.28516,0.140626 1.85547,0.285157 z m 0,0"
     fill-opacity="0.898"
     fill-rule="nonzero"
     id="path22" />
  <path
     fill="#000000"
     d="m 402.92714,40.012847 c -1.85547,0.92579 -3.84765,0.21094 -5.77343,0.42579 -0.28516,-0.71094 -0.14063,-1.4961 -0.14063,-2.20704 0,-7.832028 -0.0703,-15.58984 0,-23.421871 0,-1.351563 -0.28516,-1.851563 -1.71094,-1.777344 -2.85156,0.07031 -5.69922,0.140625 -8.55078,-0.07422 l -0.0703,-0.07031 c -0.14063,-1.707032 -0.14063,-3.4882824 0,-5.1953134 l 0.0703,-0.07031 c 8.83594,-0.144531 17.67188,-0.144531 26.50781,0 l 0.0703,0.07031 c 0.14062,1.707031 0.14062,3.4882814 0,5.1953134 l -0.0703,0.07031 c -2.85156,0.144532 -5.70312,0.144532 -8.55078,0.07422 -1.42578,0 -1.78125,0.355469 -1.78125,1.777344 0.0703,8.402343 0,16.800781 0,25.203121 z m 0,0"
     fill-opacity="0.898"
     fill-rule="nonzero"
     id="path24" />
  <path
     fill="#000000"
     d="m 230.50136,27.911288 c 4.5586,-1.425781 6.98047,-3.847656 7.69531,-8.332031 0.57032,-3.558594 -0.42968,-6.832031 -3.34765,-9.324219 -2.21094,-1.8515624 -4.84766,-2.2070314 -7.41016,-2.7773434 -5.20312,0 -10.33203,0 -15.53515,0 -0.71094,0.570312 -0.42579,1.351562 -0.42579,2.066406 0,8.8984374 0,17.8671874 0,26.7656254 0,4.128911 0,4.128911 4.20313,4.128911 1.35547,0 1.85156,-0.42579 1.85156,-1.85157 -0.0703,-2.847654 0,-5.69531 0,-8.542966 0,-0.496094 -0.21094,-1.210938 0.71485,-1.210938 1.92187,0 3.84765,0 5.76953,0 0.57031,0 0.78515,0.5 1.07031,0.855469 2.27734,3.277344 4.62891,6.550781 6.98047,9.824215 0.28515,0.35547 0.42969,0.78516 0.92578,0.78516 2.06641,0 4.13281,0 6.62891,0 -3.35157,-4.34375 -6.19922,-8.332031 -9.1211,-12.386719 z m -9.26172,-4.273437 c -3.77734,0.07031 -3.77734,0 -3.77734,-3.703125 0,-0.566407 0,-1.136719 0,-1.992188 0.21484,-1.496093 -0.78516,-3.84375 0.35547,-4.839843 1,-0.855469 3.27734,-0.285157 5.05859,-0.285157 1.78125,0 3.5625,-0.214843 5.34375,0.285157 2.85156,0.710937 4.0625,2.207031 4.13281,4.910156 0.0703,2.847656 -1.21093,4.484375 -3.91796,5.269531 -2.42188,0.710937 -4.84375,0.285156 -7.19532,0.355469 z m 0,0"
     fill-opacity="0.898"
     fill-rule="nonzero"
     id="path26" />
  <path
     fill="#000000"
     d="m 242.82558,72.829257 c -0.92578,-7.90234 -6.05469,-13.3125 -14.25,-15.01953 -0.71094,-0.35547 -1.49609,0.14062 -2.20703,-0.28516 -0.35547,0 -0.78516,0 -1.14063,0 -0.71093,0.42578 -1.49609,0 -2.20703,0.28516 -7.48047,0.85547 -13.7539,7.26172 -14.25,14.59375 -0.21484,1.49609 -0.21484,2.91797 0,4.41406 0.4961,7.54688 7.76563,14.59375 15.7461,14.59375 0.71093,0.21484 1.42578,0.21484 2.20703,0 8.55078,-0.5 15.10547,-6.76172 16.10156,-15.375 0.21484,-1 0.21484,-2.06641 0,-3.20703 z m -17.02734,13.38672 c -6.12891,0.0703 -11.39844,-5.55469 -10.97266,-11.7461 -0.28516,-6.19531 4.91797,-11.46484 11.25781,-11.39062 5.48828,0.0703 10.97266,5.62109 10.83203,11.67187 -0.28515,6.48047 -4.84765,11.39063 -11.11718,11.46485 z m 0,0"
     fill-opacity="0.898"
     fill-rule="nonzero"
     id="path28" />
  <path
     fill="#000000"
     d="m 203.35292,89.844877 c -2.27734,-3.27343 -4.48828,-6.62109 -6.98046,-9.7539 -1.14063,-1.42188 -0.5,-1.63672 0.64062,-2.13281 6.48438,-2.77735 7.69531,-10.25391 4.20313,-15.37891 -2.27735,-3.34766 -5.91407,-3.98828 -9.61719,-4.34375 -1.92578,-0.28516 -3.77735,-0.14062 -5.69922,-0.0703 -3.20703,0.0703 -6.41406,-0.21485 -9.54688,0.14453 0,0.78125 0,1.63672 0,2.41797 0,9.32812 0,18.65234 0,27.98047 0,2.34765 0,2.34765 2.42188,2.34765 1.06641,0 2.13672,0 3.13281,0 0.28516,-0.57031 0.14453,-1.21094 0.14453,-1.85156 0,-2.70313 0,-5.41016 0,-8.1875 0,-0.64063 -0.14453,-1.42188 0.92578,-1.35156 2.06641,0.14062 4.20313,-0.21485 6.26954,0.21484 2.42187,3.34375 4.77343,6.69141 7.125,10.10938 0.5,0.71093 1.07031,1.13671 1.99609,1.0664 1.42187,-0.0703 2.84766,0 4.27344,0 0.35547,0 0.78515,0.14063 0.99609,-0.28515 0.35938,-0.42579 -0.0703,-0.64063 -0.28516,-0.92579 z M 192.0248,74.255037 c -2.92188,0.0703 -5.83984,0 -8.76172,0.0703 -0.92578,0 -1.35547,-0.28515 -1.35547,-1.28125 0.0703,-2.77734 0,-5.55078 0,-8.32812 0,-0.85547 0.35547,-1.21094 1.21094,-1.21094 1.49609,0.0703 2.99219,0 4.77344,0 1.49609,0.0703 3.27734,-0.21484 5.05859,0.21485 2.92188,0.71093 4.41797,2.91796 4.20703,5.90624 -0.0742,2.35157 -2.42578,4.5586 -5.13281,4.62891 z m 0,0"
     fill-opacity="0.898"
     fill-rule="nonzero"
     id="path30" />
  <path
     fill="#000000"
     d="m 343.22011,32.751132 c -3.5625,-8.117187 -7.05469,-16.230469 -10.54687,-24.4179694 -0.21485,-0.5 -0.35547,-1.140625 -1.21094,-1.140625 -1.28125,0.07031 -2.63672,0 -3.91797,0 -0.57031,0 -0.92578,0.214844 -1.14062,0.710938 -0.85547,1.921875 -1.71094,3.9179694 -2.56641,5.8398434 -3.34766,7.617188 -6.55469,15.234376 -9.97266,22.851563 -1.71093,3.773435 -1.78125,3.628905 2.35157,3.773435 1.49609,0.0703 2.27734,-0.42578 2.91796,-1.85156 0.85547,-1.992188 1.42579,-4.269531 2.85157,-6.050781 1.42578,-0.425781 2.92187,-0.214844 4.41797,-0.140625 3.5625,0.07031 7.125,-0.285156 10.6875,0.140625 0.92578,2.136719 1.78125,4.199219 2.77734,6.335941 0.28516,0.71093 0.5,1.5664 1.57031,1.49609 1.63672,-0.0742 3.34766,0 5.19922,0 -1.21094,-2.5625 -2.35156,-5.054688 -3.41797,-7.546875 z m -9.6914,-5.480469 c -2.77735,-0.07422 -5.5586,0 -8.33594,0 -0.57031,0 -1.35547,0.210938 -0.85547,-0.925781 1.71094,-3.847656 3.34766,-7.761719 5.05859,-11.890625 1.78125,4.058594 3.34766,7.761719 5.0586,11.460938 0.42968,0.996093 0.35547,1.355468 -0.92578,1.355468 z m 0,0"
     fill-opacity="0.898"
     fill-rule="nonzero"
     id="path32" />
</svg>
