<?xml version="1.0" encoding="UTF-8" standalone="no"?>
<svg
   width="451.74521"
   zoomAndPan="magnify"
   viewBox="0 0 338.80891 338.34189"
   height="451.12253"
   preserveAspectRatio="xMidYMid meet"
   version="1.0"
   id="svg6"
   sodipodi:docname="Untitled design-6.svg"
   inkscape:version="1.1.2 (b8e25be833, 2022-02-05)"
   xmlns:inkscape="http://www.inkscape.org/namespaces/inkscape"
   xmlns:sodipodi="http://sodipodi.sourceforge.net/DTD/sodipodi-0.dtd"
   xmlns="http://www.w3.org/2000/svg"
   xmlns:svg="http://www.w3.org/2000/svg">
  <defs
     id="defs10" />
  <sodipodi:namedview
     id="namedview8"
     pagecolor="#ffffff"
     bordercolor="#666666"
     borderopacity="1.0"
     inkscape:pageshadow="2"
     inkscape:pageopacity="0.0"
     inkscape:pagecheckerboard="0"
     showgrid="false"
     fit-margin-top="0"
     fit-margin-left="0"
     fit-margin-right="0"
     fit-margin-bottom="0"
     inkscape:zoom="1.438"
     inkscape:cx="227.74687"
     inkscape:cy="225.66064"
     inkscape:window-width="1920"
     inkscape:window-height="1111"
     inkscape:window-x="-9"
     inkscape:window-y="-9"
     inkscape:window-maximized="1"
     inkscape:current-layer="svg6" />
  <path
     fill="#005887"
     d="m 262.21809,145.70718 c -8.54297,-20.98828 -16.35547,-40.7539 -24.90234,-61.499995 -26.1211,33.925785 -51.75391,67.113285 -78.36329,101.281245 -11.96093,-27.57812 -23.67968,-54.42187 -35.64062,-81.99999 -10.00781,13.42187 -19.53125,26.11328 -28.80859,38.80468 -18.550785,25.13672 -37.105472,50.27344 -55.66016,75.65235 -5.613281,7.5664 -11.472656,14.64453 -16.597656,22.45312 -3.664063,5.85938 -4.640625,3.90625 -6.835938,-0.97656 C 4.9094965,216.48062 -0.45769051,192.56656 0.03059049,167.42984 1.2493405,117.39859 20.046215,75.179836 57.643871,41.98843 85.96028,16.851711 119.40559,3.1837432 157.24543,0.50014924 203.87043,-2.9178198 244.88606,11.23843 280.52668,41.257961 c 11.96094,10.003906 21.97266,21.71875 30.51563,34.652344 1.46484,1.953125 3.66015,3.90625 0.97656,7.32031 -16.35547,20.257825 -32.71094,41.000005 -49.80078,62.476565 z m 0,0"
     fill-opacity="1"
     fill-rule="nonzero"
     id="path2" />
  <path
     fill="#4ab580"
     d="m 226.81965,157.42203 c 8.05469,20.25781 15.86719,39.29297 24.16797,59.79297 26.85547,-33.4336 52.97656,-65.89453 79.33984,-98.83985 4.15235,9.03125 5.61719,18.30469 6.83594,27.33203 4.15235,30.50782 0.48828,60.03907 -11.47265,88.34766 -15.37891,36.36328 -40.52344,64.18359 -75.19141,83.46484 -29.53906,16.10547 -61.27344,22.9375 -94.47656,20.25391 C 123.55403,335.09 94.01497,324.10562 67.893871,304.34 59.350902,297.99625 51.538402,290.91812 44.214184,283.10562 41.042309,279.93375 40.554028,277.25015 43.483715,273.10172 66.18684,242.84 88.40168,212.57828 110.86262,182.31656 c 1.21875,-1.46484 1.95313,-3.90625 3.90625,-3.66016 2.19531,0.24219 2.44141,2.6836 3.17188,4.39063 9.76562,22.69922 19.53125,45.63672 29.29296,68.33594 1.71094,4.14843 3.41797,4.8789 6.34766,0.97265 17.33594,-22.69531 34.66797,-45.39062 52.24219,-68.08594 6.83594,-8.54296 13.67187,-17.32812 20.99609,-26.84765 z m 0,0"
     fill-opacity="1"
     fill-rule="nonzero"
     id="path4" />
</svg>
